<?xml version="1.0" standalone="no"?>
<!DOCTYPE svg PUBLIC "-//W3C//DTD SVG 20010904//EN"
 "http://www.w3.org/TR/2001/REC-SVG-20010904/DTD/svg10.dtd">
<svg version="1.0" xmlns="http://www.w3.org/2000/svg"
 width="1275.000000pt" height="1275.000000pt" viewBox="0 0 1275.000000 1275.000000"
 preserveAspectRatio="xMidYMid meet">

<g transform="translate(0.000000,1275.000000) scale(0.100000,-0.100000)"
fill="#000000" stroke="none">
<path d="M1 9688 c1 -1685 6 -3004 10 -2933 89 1428 646 2773 1594 3850 114
129 411 426 540 540 1077 948 2422 1505 3850 1594 72 4 -1248 9 -2932 10
l-3063 1 1 -3062z"/>
<path d="M6755 12739 c2180 -135 4109 -1348 5167 -3249 494 -887 757 -1767
817 -2730 5 -77 9 1177 10 2928 l1 3062 -3062 -1 c-1685 -1 -3004 -6 -2933
-10z"/>
<path d="M6030 11810 c-1377 -75 -2668 -675 -3578 -1663 -598 -650 -1008
-1367 -1237 -2167 -297 -1037 -299 -2152 -4 -3185 134 -470 313 -893 559
-1321 49 -86 90 -158 90 -160 0 -13 72 -118 111 -163 26 -29 92 -117 146 -194
123 -176 261 -334 489 -557 200 -196 310 -290 529 -455 254 -191 526 -360 798
-496 76 -38 140 -76 143 -84 4 -9 14 -13 28 -9 13 3 64 -13 131 -41 720 -302
1329 -425 2110 -426 575 0 1085 70 1625 226 918 265 1698 741 2311 1411 415
453 688 845 942 1354 287 572 450 1119 528 1765 27 217 37 714 20 972 -81
1255 -499 2307 -1295 3263 -150 180 -468 505 -641 655 -782 676 -1675 1079
-2715 1224 -334 47 -783 68 -1090 51z m67 -1384 c76 -24 143 -75 181 -137 29
-47 33 -61 30 -105 -5 -64 -37 -110 -92 -135 -47 -21 -104 -23 -261 -9 -187
18 -247 29 -292 56 -80 46 -121 145 -94 226 15 44 67 95 117 114 55 20 338 13
411 -10z m-1154 -189 c18 -8 49 -32 69 -55 67 -74 76 -182 21 -250 -24 -29
-79 -62 -259 -152 -260 -131 -376 -197 -621 -352 -177 -112 -246 -144 -287
-134 -33 8 -111 80 -130 120 -21 46 -37 132 -30 162 7 26 131 140 253 231 116
88 272 179 466 274 335 163 431 192 518 156z m4138 -483 c126 -37 239 -132
305 -258 32 -61 38 -82 42 -151 5 -102 -14 -179 -78 -311 -59 -123 -115 -198
-350 -474 -162 -190 -310 -359 -789 -904 -170 -193 -330 -395 -363 -457 -19
-34 -28 -66 -28 -96 0 -94 83 -777 170 -1403 123 -885 195 -1448 295 -2305 78
-669 80 -691 67 -777 -20 -133 -141 -330 -291 -470 -81 -77 -109 -95 -116 -76
-40 109 -1386 3662 -1390 3669 -4 5 -11 9 -17 9 -25 0 -121 -85 -190 -167
-115 -139 -594 -695 -922 -1072 -164 -190 -312 -365 -327 -390 -59 -98 -59
-108 4 -739 32 -312 58 -594 57 -627 0 -88 -32 -147 -137 -256 -100 -104 -302
-281 -315 -277 -25 9 -175 379 -367 907 -140 382 -156 417 -211 446 -50 26
-559 131 -947 196 -258 43 -337 63 -413 106 -84 48 -108 82 -90 129 6 15 62
93 126 175 104 134 118 149 152 154 20 4 96 22 167 40 72 18 222 50 335 70
420 75 804 161 875 197 22 12 57 34 78 51 42 33 648 736 1065 1235 257 308
317 394 310 445 -6 40 -105 62 -535 122 -790 109 -1421 187 -2348 290 -443 49
-700 82 -788 101 -52 11 -54 41 -7 135 115 230 244 366 375 393 17 3 379 47
805 96 885 103 1472 175 1840 225 587 79 1126 142 1638 190 214 20 282 30 311
45 27 13 104 98 258 282 511 612 910 1040 1253 1349 101 90 148 121 227 148
72 25 188 27 264 5z m-5721 -748 c84 -55 105 -186 44 -263 -60 -73 -147 -93
-232 -52 -105 51 -132 188 -54 281 59 70 165 85 242 34z m-560 -676 c108 -55
129 -203 41 -291 -118 -118 -314 -35 -313 133 2 137 147 222 272 158z"/>
<path d="M1 3063 l-1 -3063 3063 1 c1684 1 3004 6 2932 10 -1428 89 -2773 646
-3850 1594 -129 114 -426 411 -540 540 -948 1077 -1505 2422 -1594 3850 -4 72
-9 -1248 -10 -2932z"/>
<path d="M12737 5985 c-4 -74 -14 -198 -22 -277 -144 -1330 -686 -2559 -1570
-3563 -114 -129 -411 -426 -540 -540 -1077 -948 -2422 -1505 -3850 -1594 -71
-4 1248 -9 2933 -10 l3062 -1 0 3060 c0 1683 -2 3060 -3 3060 -2 0 -7 -61 -10
-135z"/>
</g>
</svg>
