<?xml version="1.0" standalone="no"?>
<!DOCTYPE svg PUBLIC "-//W3C//DTD SVG 20010904//EN"
 "http://www.w3.org/TR/2001/REC-SVG-20010904/DTD/svg10.dtd">
<svg xmlns="http://www.w3.org/2000/svg" version="1.1" width="50px" height="50px" viewBox="0 -50 600 600" style="shape-rendering:geometricPrecision; text-rendering:geometricPrecision; image-rendering:optimizeQuality; fill-rule:evenodd; clip-rule:evenodd" xmlns:xlink="http://www.w3.org/1999/xlink">
      <g transform="rotate(45 252.5 249.5)"><path style="opacity:1" fill="#ccc" d="M 464.5,-0.5 C 470.167,-0.5 475.833,-0.5 481.5,-0.5C 494.845,4.82697 502.512,14.4936 504.5,28.5C 504.5,30.1667 504.5,31.8333 504.5,33.5C 503.759,37.172 502.593,40.8387 501,44.5C 496.711,50.4578 492.044,56.1244 487,61.5C 448.361,101.139 409.361,140.472 370,179.5C 392.441,270.763 415.608,361.929 439.5,453C 424.949,469.052 409.615,484.219 393.5,498.5C 392.5,498.5 391.5,498.5 390.5,498.5C 352.203,423.24 313.37,348.24 274,273.5C 243.333,302.833 213.333,332.833 184,363.5C 182.978,365.702 182.478,368.035 182.5,370.5C 184.73,392.241 187.397,413.908 190.5,435.5C 178.348,448.153 166.014,460.653 153.5,473C 152.668,473.688 152.002,473.521 151.5,472.5C 137.333,445.5 123.167,418.5 109,391.5C 81.4364,377.636 54.2697,363.136 27.5,348C 39.137,335.362 51.137,323.029 63.5,311C 87.8047,313.58 112.138,315.913 136.5,318C 166.361,288.472 195.861,258.639 225,228.5C 225.667,227.5 225.667,226.5 225,225.5C 149.859,185.681 74.692,146.014 -0.5,106.5C -0.5,105.833 -0.5,105.167 -0.5,104.5C 14.9652,89.5352 30.2985,74.3685 45.5,59C 134.625,81.5322 223.625,104.866 312.5,129C 316.754,130.484 321.087,131.151 325.5,131C 368.223,87.6096 411.556,44.9429 455.5,3C 458.571,1.70435 461.571,0.53768 464.5,-0.5 Z"/></g>
</svg>