<?xml version="1.0" encoding="UTF-8"?>
<!DOCTYPE svg PUBLIC "-//W3C//DTD SVG 1.1//EN" "http://www.w3.org/Graphics/SVG/1.1/DTD/svg11.dtd">
<svg xmlns="http://www.w3.org/2000/svg" version="1.1" width="50px" height="50px" viewBox="0 0 594 581" style="shape-rendering:geometricPrecision; text-rendering:geometricPrecision; image-rendering:optimizeQuality; fill-rule:evenodd; clip-rule:evenodd" xmlns:xlink="http://www.w3.org/1999/xlink">
<g><path style="opacity:1" fill="#cbcbcb" d="M 174.5,-0.5 C 189.5,-0.5 204.5,-0.5 219.5,-0.5C 227.235,0.180898 235.068,0.847565 243,1.5C 291.757,83.3413 339.757,165.675 387,248.5C 389.257,252.012 391.757,255.346 394.5,258.5C 452.5,259.333 510.5,260.167 568.5,261C 571.583,262.139 574.583,263.472 577.5,265C 581.667,269.167 585.833,273.333 590,277.5C 591.228,280.598 592.394,283.598 593.5,286.5C 593.5,290.5 593.5,294.5 593.5,298.5C 587.805,318.311 574.471,327.478 553.5,326C 499.494,326.468 445.494,327.301 391.5,328.5C 341.33,411.503 291.663,494.836 242.5,578.5C 236.012,579.167 229.679,579.833 223.5,580.5C 214.833,580.5 206.167,580.5 197.5,580.5C 190.011,579.671 182.344,579.171 174.5,579C 173.941,578.275 173.608,577.442 173.5,576.5C 200.868,493.184 227.535,409.684 253.5,326C 203.171,324.378 152.837,324.378 102.5,326C 99.4384,327.061 96.9384,328.894 95,331.5C 81.1188,348.38 67.6188,365.546 54.5,383C 36.1697,383.5 17.8364,383.667 -0.5,383.5C -0.5,382.167 -0.5,380.833 -0.5,379.5C 9.12093,350.38 18.4543,321.046 27.5,291.5C 18.126,261.054 8.79271,230.72 -0.5,200.5C -0.5,200.167 -0.5,199.833 -0.5,199.5C 17.1658,198.885 34.8325,198.718 52.5,199C 68.5,218.333 84.5,237.667 100.5,257C 150.5,257.667 200.5,257.667 250.5,257C 251,256.5 251.5,256 252,255.5C 226.465,170.556 200.299,85.7231 173.5,1C 174.056,0.617425 174.389,0.117425 174.5,-0.5 Z"/></g>
</svg>