<?xml version="1.0" standalone="no"?>
<!DOCTYPE svg PUBLIC "-//W3C//DTD SVG 20010904//EN"
 "http://www.w3.org/TR/2001/REC-SVG-20010904/DTD/svg10.dtd">
<svg version="1.0" xmlns="http://www.w3.org/2000/svg"
 width="900.000000pt" height="900.000000pt" viewBox="0 0 900.000000 900.000000"
 preserveAspectRatio="xMidYMid meet">
<metadata>
Created by potrace 1.10, written by Peter Selinger 2001-2011
</metadata>
<g transform="translate(0.000000,900.000000) scale(0.100000,-0.100000)"
fill="#efefef" stroke="none">
<path d="M4725 8135 c-22 -7 -69 -22 -105 -33 -86 -28 -129 -43 -165 -58 -16
-7 -50 -20 -75 -30 -43 -17 -344 -163 -385 -187 -133 -79 -147 -87 -256 -162
-187 -127 -431 -347 -598 -540 -111 -128 -133 -157 -222 -291 -94 -141 -97
-145 -109 -169 -6 -11 -26 -47 -45 -80 -47 -83 -86 -165 -152 -315 -9 -19 -22
-48 -29 -63 -8 -16 -14 -36 -14 -45 0 -9 -7 -26 -15 -36 -8 -11 -15 -28 -15
-38 0 -9 -6 -32 -14 -50 -40 -96 -114 -422 -135 -598 -8 -61 -16 -81 -88 -210
-8 -14 -23 -38 -33 -55 -10 -16 -31 -52 -46 -80 -49 -89 -55 -100 -74 -130
-11 -16 -23 -37 -27 -45 -4 -8 -25 -46 -48 -85 -22 -38 -44 -77 -48 -85 -4 -8
-13 -24 -20 -35 -7 -11 -30 -52 -52 -90 -22 -39 -45 -79 -52 -90 -7 -11 -16
-27 -20 -35 -4 -8 -26 -46 -48 -85 -23 -38 -44 -77 -48 -85 -4 -8 -16 -28 -26
-45 -11 -16 -32 -52 -47 -80 -49 -89 -55 -100 -74 -130 -11 -16 -23 -37 -27
-45 -8 -18 -89 -158 -103 -180 -6 -8 -13 -22 -17 -30 -4 -8 -26 -46 -48 -85
-23 -38 -45 -77 -49 -85 -4 -8 -12 -24 -19 -35 -7 -11 -37 -63 -67 -115 -30
-52 -60 -104 -67 -115 -7 -11 -15 -27 -19 -35 -4 -8 -26 -46 -49 -85 -22 -38
-44 -77 -48 -85 -4 -8 -16 -28 -26 -45 -11 -16 -32 -52 -47 -80 -48 -87 -55
-99 -74 -130 -10 -16 -31 -52 -46 -80 -49 -89 -55 -100 -74 -130 -11 -16 -23
-37 -27 -45 -4 -8 -25 -46 -48 -85 -22 -38 -44 -77 -48 -85 -4 -8 -16 -28 -27
-45 -11 -16 -26 -43 -34 -60 -8 -16 -29 -52 -45 -80 -17 -27 -35 -59 -41 -70
-6 -11 -20 -36 -31 -55 -12 -19 -32 -55 -46 -80 -13 -25 -33 -58 -44 -75 -27
-44 -40 -75 -33 -86 7 -12 239 -11 374 1 58 6 222 14 365 20 143 5 278 12 300
15 22 4 144 10 270 15 215 8 330 14 790 41 99 5 279 14 400 19 121 5 274 14
340 20 66 5 167 10 225 10 58 0 184 7 280 15 227 19 374 19 408 1 50 -25 133
-62 212 -91 25 -9 59 -22 75 -29 50 -21 98 -38 135 -46 19 -4 49 -13 65 -18
204 -69 537 -121 834 -129 296 -9 684 44 966 131 22 7 67 21 100 31 33 9 78
24 100 32 22 8 56 21 75 28 106 38 198 77 325 135 39 17 77 36 85 40 8 5 51
27 95 50 44 23 94 50 110 61 17 10 39 23 50 29 29 15 56 32 96 63 20 15 40 27
44 27 8 0 144 103 205 156 67 57 259 251 310 313 25 29 51 59 57 66 18 19 132
171 178 238 63 92 87 130 130 212 15 28 42 77 60 110 65 116 133 261 141 301
8 44 -29 69 -151 104 -16 4 -55 18 -85 30 -110 42 -136 52 -165 59 -17 4 -39
12 -50 18 -22 11 -71 29 -122 44 -38 11 -42 36 -19 110 14 46 35 140 60 274
62 330 52 739 -26 1050 -5 22 -13 58 -18 80 -4 22 -12 54 -18 70 -6 17 -15 46
-22 65 -6 19 -16 50 -20 69 -5 18 -13 38 -19 44 -6 6 -11 19 -11 28 0 10 -6
30 -14 46 -7 15 -20 44 -29 63 -31 72 -118 247 -152 305 -19 33 -38 67 -42 75
-10 22 -90 137 -141 205 -157 207 -358 403 -561 547 -167 118 -411 250 -576
311 -22 8 -58 21 -80 30 -22 8 -65 21 -95 30 -30 8 -80 22 -110 30 -55 15
-152 35 -285 57 -38 7 -176 14 -305 17 -233 5 -345 -3 -528 -38 -58 -12 -76
-5 -85 34 -3 12 -17 56 -31 97 -14 41 -26 83 -26 94 0 10 -6 42 -14 70 -8 28
-22 87 -31 131 -9 44 -23 104 -31 133 -14 47 -18 52 -42 51 -15 0 -45 -6 -67
-14z m1074 -960 c206 -30 319 -59 526 -132 48 -17 267 -126 310 -153 17 -11
37 -23 45 -27 8 -4 69 -47 135 -97 254 -191 501 -473 630 -721 14 -27 30 -57
35 -65 5 -8 11 -22 14 -30 3 -8 10 -22 15 -30 5 -8 16 -32 25 -52 57 -131 71
-168 119 -338 67 -238 95 -611 63 -857 -21 -159 -61 -339 -92 -411 -8 -18 -14
-41 -14 -50 0 -10 -7 -27 -15 -38 -8 -10 -15 -25 -15 -33 0 -19 -76 -181 -141
-301 -22 -40 -146 -225 -161 -241 -8 -8 -33 -39 -57 -69 -76 -99 -264 -280
-376 -364 -60 -45 -117 -85 -125 -89 -8 -4 -28 -16 -45 -27 -30 -19 -212 -110
-270 -135 -16 -7 -47 -20 -68 -29 -21 -9 -44 -16 -52 -16 -8 0 -29 -6 -47 -14
-61 -26 -200 -59 -388 -92 -133 -23 -551 -23 -660 0 -41 9 -86 16 -99 16 -23
0 -101 19 -166 42 -16 5 -43 13 -60 18 -51 14 -102 33 -198 74 -21 9 -46 16
-57 16 -10 0 -21 4 -25 9 -3 6 -29 21 -58 36 -28 14 -61 31 -72 38 -55 34
-101 63 -110 67 -21 11 -151 100 -170 117 -12 10 -50 42 -85 72 -102 85 -195
186 -293 315 -101 134 -152 217 -221 361 -26 55 -52 108 -57 117 -26 50 -90
249 -123 383 -63 259 -76 648 -31 915 23 135 63 293 91 358 8 18 14 41 14 50
0 10 7 27 15 38 8 10 15 25 15 32 1 47 174 356 270 482 90 119 108 138 225
255 215 214 464 374 745 480 25 9 60 23 78 31 18 8 40 14 50 14 9 0 34 6 57
14 46 16 153 39 275 60 121 20 463 20 599 1z"/>
<path d="M5290 6643 c-77 -12 -116 -60 -90 -109 27 -49 68 -64 173 -64 91 0
96 1 116 26 28 35 27 47 -9 87 -21 25 -46 39 -88 51 -32 9 -63 15 -68 15 -5
-1 -20 -4 -34 -6z"/>
<path d="M4810 6528 c-139 -65 -157 -75 -240 -129 -64 -42 -140 -114 -140
-132 0 -7 10 -30 23 -52 36 -64 61 -61 211 29 69 42 127 76 130 76 3 0 28 14
56 30 28 17 57 30 65 30 7 0 30 15 49 34 43 40 46 72 10 115 -34 41 -77 40
-164 -1z"/>
<path d="M6535 6358 c-51 -13 -96 -50 -247 -201 -104 -105 -360 -393 -438
-494 -24 -31 -32 -34 -125 -48 -55 -8 -120 -15 -145 -15 -25 0 -99 -7 -165
-15 -66 -9 -172 -23 -235 -31 -63 -8 -160 -21 -215 -29 -55 -8 -113 -15 -130
-15 -16 0 -75 -7 -130 -15 -55 -8 -163 -22 -240 -30 -77 -9 -189 -22 -250 -30
-60 -8 -142 -17 -181 -19 -119 -9 -177 -42 -219 -123 -10 -21 -25 -46 -33 -55
-25 -30 -11 -52 38 -59 167 -22 231 -30 355 -44 77 -9 176 -20 220 -26 44 -5
123 -14 175 -19 52 -6 113 -14 135 -20 22 -5 58 -10 80 -10 22 0 83 -6 135
-14 52 -9 149 -23 215 -32 66 -10 126 -22 133 -28 20 -15 6 -52 -38 -105 -21
-25 -83 -98 -136 -161 -164 -195 -179 -213 -191 -225 -6 -6 -35 -41 -64 -76
-113 -137 -137 -153 -279 -182 -100 -21 -295 -60 -375 -75 -54 -11 -65 -18
-119 -81 -48 -57 -57 -90 -30 -112 22 -18 113 -49 146 -49 15 0 62 -7 105 -15
258 -51 326 -69 340 -88 11 -14 28 -56 88 -217 8 -22 22 -58 30 -80 41 -109
63 -163 85 -210 15 -31 40 -19 119 59 l81 80 0 88 c0 48 -5 117 -10 153 -18
111 -29 297 -20 334 5 24 38 71 96 138 48 57 92 108 98 113 6 6 42 46 80 90
147 172 173 202 240 278 l69 79 19 -23 c10 -13 21 -35 24 -49 3 -14 12 -38 19
-55 14 -32 42 -105 91 -237 8 -21 21 -57 30 -80 9 -24 22 -60 30 -80 8 -21 21
-56 29 -78 8 -22 22 -58 30 -80 8 -22 21 -57 29 -77 8 -21 22 -58 31 -83 9
-25 24 -63 32 -85 8 -22 21 -53 29 -68 8 -16 14 -36 14 -45 0 -9 7 -26 15 -36
8 -11 15 -29 15 -40 0 -12 7 -30 15 -40 8 -11 15 -28 15 -37 0 -10 6 -30 14
-46 8 -15 21 -46 29 -68 14 -37 36 -96 58 -153 13 -34 37 -38 65 -11 44 41 94
116 111 165 17 49 15 77 -18 334 -6 47 -15 121 -19 165 -4 44 -13 121 -19 170
-7 50 -19 142 -27 205 -8 63 -20 147 -25 185 -6 39 -15 102 -19 140 -4 39 -13
102 -19 140 -23 157 -34 234 -42 320 -5 50 -11 117 -15 151 -5 45 -3 68 9 90
14 26 166 209 258 309 136 148 320 375 347 428 38 74 44 165 15 207 -32 46
-86 88 -121 95 -18 3 -39 8 -45 10 -7 1 -30 -2 -52 -7z"/>
<path d="M4205 6046 c-30 -22 -27 -92 5 -117 32 -24 61 -24 93 1 44 35 44 71
1 114 -19 20 -74 21 -99 2z"/>
<path d="M3972 5753 c-29 -35 -28 -55 4 -92 50 -60 129 -31 129 49 0 52 -18
70 -69 70 -34 0 -47 -5 -64 -27z"/>
</g>
</svg>
